<?xml version="1.0" encoding="UTF-8" standalone="no"?>
<!-- Created with Inkscape (http://www.inkscape.org/) -->

<svg
   width="16.001221"
   height="16.001282"
   viewBox="0 0 4.2336563 4.2336724"
   version="1.1"
   id="svg1"
   xml:space="preserve"
   sodipodi:docname="favicon.svg"
   inkscape:export-filename="favicon.svg"
   inkscape:export-xdpi="96"
   inkscape:export-ydpi="96"
   inkscape:version="1.3.2 (091e20e, 2023-11-25, custom)"
   xmlns:inkscape="http://www.inkscape.org/namespaces/inkscape"
   xmlns:sodipodi="http://sodipodi.sourceforge.net/DTD/sodipodi-0.dtd"
   xmlns="http://www.w3.org/2000/svg"
   xmlns:svg="http://www.w3.org/2000/svg"><sodipodi:namedview
     id="namedview1"
     pagecolor="#ffffff"
     bordercolor="#000000"
     borderopacity="0.25"
     inkscape:showpageshadow="2"
     inkscape:pageopacity="0.0"
     inkscape:pagecheckerboard="0"
     inkscape:deskcolor="#d1d1d1"
     inkscape:zoom="53.808189"
     inkscape:cx="7.9913486"
     inkscape:cy="8.0006409"
     inkscape:window-width="1920"
     inkscape:window-height="1057"
     inkscape:window-x="-8"
     inkscape:window-y="-8"
     inkscape:window-maximized="1"
     inkscape:current-layer="svg1" /><style
     id="style134">#rect133, #path133 {  }
</style><defs
     id="defs1" /><g
     id="g550"
     style="display:inline"
     transform="translate(-335.11539,-149.26421)"><g
       id="g532"
       style="display:inline;opacity:0.223"><rect
         style="fill:#808000;stroke-width:0.0707502"
         id="rect4"
         width="0.20954791"
         height="0.20954791"
         x="337.3447"
         y="152.03105" /></g><rect
       style="fill:#130a38;fill-opacity:1;fill-rule:nonzero;stroke-width:1.735;stroke-linecap:square;paint-order:stroke fill markers"
       id="rect1"
       width="4.2336688"
       height="4.2336688"
       x="335.11539"
       y="149.26421"
       ry="0.42994791" /><path
       id="path5"
       style="display:inline;opacity:1;fill:#fff8e3;fill-opacity:1;fill-rule:nonzero;stroke-width:0.849002"
       d="m 338.21828,149.58969 c -0.01,2.3e-4 -0.0203,0.002 -0.0302,0.004 v 4.2e-4 l -0.24333,0.0515 c -0.0237,0.006 -0.0468,0.0117 -0.0696,0.0192 a 0.66329455,0.66329455 0 0 0 -0.0225,0.008 c -0.0184,0.006 -0.0364,0.0144 -0.054,0.0229 a 0.66329455,0.66329455 0 0 0 -0.0347,0.018 c -0.006,0.003 -0.0102,0.006 -0.0151,0.009 a 0.66329455,0.66329455 0 0 0 -0.31857,0.44983 l -0.0479,0.25518 h 0.002 a 0.49747358,0.49747376 78.037704 0 0 -0.005,0.13291 c 0.002,0.0171 0.004,0.0342 0.007,0.0511 l 0.0343,0.16194 0.0945,0.44615 0.009,0.0405 0.0601,0.28421 0.63835,0.15867 4.1e-4,4e-4 c 0.003,7.5e-4 0.006,5.7e-4 0.009,0 l 0.0609,-0.0127 0.16235,-0.0347 c 0.043,-0.009 0.0807,-0.035 0.10469,-0.0719 l 0.12187,-0.18771 -0.002,-4e-4 c 0.0289,-0.0377 0.0403,-0.0863 0.0311,-0.13291 -0.009,-0.0442 -0.0368,-0.0826 -0.0753,-0.10632 v -4.1e-4 l -0.19343,-0.12555 h -4.1e-4 c -0.0367,-0.024 -0.0814,-0.0323 -0.12432,-0.0233 l -0.081,0.0172 0.0573,-0.0969 0.006,-0.009 0.002,-0.003 0.18238,-0.30793 h -4e-4 a 0.33164883,0.33164883 0 0 0 0.0442,-0.20447 c -7.4e-4,-0.0103 -0.002,-0.0205 -0.005,-0.0307 a 0.33164883,0.33164883 0 0 0 -4e-4,-0.002 0.33164883,0.33164883 0 0 0 0,-8e-4 l -0.10306,-0.48582 -0.0343,-0.16234 c -0.002,-0.006 -0.004,-0.0137 -0.006,-0.0204 -0.0241,-0.0687 -0.0894,-0.11248 -0.1599,-0.11083 z m -2.09172,1.36054 v 0.99495 0.99494 h 0.99495 0.99494 v -0.82932 -0.16562 c 0,-0.0229 -0.0183,-0.0417 -0.0413,-0.0417 -0.006,0 -0.0102,7.9e-4 -0.0147,0.003 -0.005,0.002 -0.008,0.005 -0.0119,0.007 h -4.1e-4 l -0.0372,0.0319 -0.0601,0.0511 -0.11246,0.0949 -4.1e-4,4e-4 c -0.0148,0.0124 -0.0338,0.0191 -0.0532,0.0192 h -4.1e-4 c -0.0145,-1.8e-4 -0.0288,-0.005 -0.0413,-0.0115 l -0.0409,-0.0233 -0.0196,-0.0115 -8e-4,-4.1e-4 c -0.0107,-0.006 -0.018,-0.0171 -0.02,-0.0298 l -7.9e-4,-0.006 -0.0434,-0.28094 -4.2e-4,4.1e-4 c -0.0153,-0.0995 -0.1005,-0.17544 -0.20446,-0.17544 -0.0253,0 -0.0488,0.005 -0.0711,0.0123 l -0.41222,0.1509 c -0.005,0.002 -0.009,0.002 -0.0143,0.002 -0.0117,-4e-5 -0.0222,-0.006 -0.0298,-0.0127 l -0.0287,-0.029 -0.0115,-0.0115 c -0.008,-0.008 -0.0131,-0.018 -0.0131,-0.0298 v -0.0413 -0.20733 c 0,-0.0168 0.01,-0.0309 0.0241,-0.0376 l 0.002,-4.1e-4 0.0164,-0.007 0.0826,-0.0385 0.16602,-0.0764 0.11737,-0.054 4.1e-4,-4e-4 c 0.0292,-0.0135 0.0483,-0.043 0.0483,-0.0753 v -0.12431 c 0,-0.0229 -0.0188,-0.0413 -0.0417,-0.0413 h -0.45596 z" /></g></svg>
